<mxfile host="app.diagrams.net" agent="Mozilla/5.0 (Windows NT 10.0; Win64; x64) AppleWebKit/537.36 (KHTML, like Gecko) Chrome/127.0.0.0 Safari/537.36 OPR/113.0.0.0" version="24.8.3">
  <diagram name="Page-1" id="Fk_O21LcfUNEBpKHQNCr">
    <mxGraphModel dx="1393" dy="763" grid="1" gridSize="10" guides="1" tooltips="1" connect="1" arrows="1" fold="1" page="1" pageScale="1" pageWidth="850" pageHeight="1100" math="0" shadow="0">
      <root>
        <mxCell id="0" />
        <mxCell id="1" parent="0" />
        <mxCell id="oEjK3gBVX5ZYHdjVoAei-1" value="Component" style="swimlane;fontStyle=1;align=center;verticalAlign=top;childLayout=stackLayout;horizontal=1;startSize=26;horizontalStack=0;resizeParent=1;resizeParentMax=0;resizeLast=0;collapsible=1;marginBottom=0;whiteSpace=wrap;html=1;" parent="1" vertex="1">
          <mxGeometry x="440" y="200" width="310" height="60" as="geometry" />
        </mxCell>
        <mxCell id="oEjK3gBVX5ZYHdjVoAei-3" value="" style="line;strokeWidth=1;fillColor=none;align=left;verticalAlign=middle;spacingTop=-1;spacingLeft=3;spacingRight=3;rotatable=0;labelPosition=right;points=[];portConstraint=eastwest;strokeColor=inherit;" parent="oEjK3gBVX5ZYHdjVoAei-1" vertex="1">
          <mxGeometry y="26" width="310" height="8" as="geometry" />
        </mxCell>
        <mxCell id="oEjK3gBVX5ZYHdjVoAei-4" value="virtual execute(Entity&amp;amp;,Message)self,message" style="text;strokeColor=none;fillColor=none;align=left;verticalAlign=top;spacingLeft=4;spacingRight=4;overflow=hidden;rotatable=0;points=[[0,0.5],[1,0.5]];portConstraint=eastwest;whiteSpace=wrap;html=1;" parent="oEjK3gBVX5ZYHdjVoAei-1" vertex="1">
          <mxGeometry y="34" width="310" height="26" as="geometry" />
        </mxCell>
        <mxCell id="oEjK3gBVX5ZYHdjVoAei-5" value="Use" style="swimlane;fontStyle=1;align=center;verticalAlign=top;childLayout=stackLayout;horizontal=1;startSize=26;horizontalStack=0;resizeParent=1;resizeParentMax=0;resizeLast=0;collapsible=1;marginBottom=0;whiteSpace=wrap;html=1;" parent="1" vertex="1">
          <mxGeometry x="490" y="320" width="310" height="60" as="geometry" />
        </mxCell>
        <mxCell id="oEjK3gBVX5ZYHdjVoAei-7" value="" style="line;strokeWidth=1;fillColor=none;align=left;verticalAlign=middle;spacingTop=-1;spacingLeft=3;spacingRight=3;rotatable=0;labelPosition=right;points=[];portConstraint=eastwest;strokeColor=inherit;" parent="oEjK3gBVX5ZYHdjVoAei-5" vertex="1">
          <mxGeometry y="26" width="310" height="8" as="geometry" />
        </mxCell>
        <mxCell id="oEjK3gBVX5ZYHdjVoAei-8" value="void execute(Entity&amp;amp;,Message)self,message override" style="text;strokeColor=none;fillColor=none;align=left;verticalAlign=top;spacingLeft=4;spacingRight=4;overflow=hidden;rotatable=0;points=[[0,0.5],[1,0.5]];portConstraint=eastwest;whiteSpace=wrap;html=1;" parent="oEjK3gBVX5ZYHdjVoAei-5" vertex="1">
          <mxGeometry y="34" width="310" height="26" as="geometry" />
        </mxCell>
        <mxCell id="oEjK3gBVX5ZYHdjVoAei-9" value="Open" style="swimlane;fontStyle=1;align=center;verticalAlign=top;childLayout=stackLayout;horizontal=1;startSize=26;horizontalStack=0;resizeParent=1;resizeParentMax=0;resizeLast=0;collapsible=1;marginBottom=0;whiteSpace=wrap;html=1;" parent="1" vertex="1">
          <mxGeometry x="90" y="320" width="310" height="60" as="geometry" />
        </mxCell>
        <mxCell id="oEjK3gBVX5ZYHdjVoAei-10" value="" style="line;strokeWidth=1;fillColor=none;align=left;verticalAlign=middle;spacingTop=-1;spacingLeft=3;spacingRight=3;rotatable=0;labelPosition=right;points=[];portConstraint=eastwest;strokeColor=inherit;" parent="oEjK3gBVX5ZYHdjVoAei-9" vertex="1">
          <mxGeometry y="26" width="310" height="8" as="geometry" />
        </mxCell>
        <mxCell id="oEjK3gBVX5ZYHdjVoAei-11" value="void execute(Entity&amp;amp;,Message)self,message override" style="text;strokeColor=none;fillColor=none;align=left;verticalAlign=top;spacingLeft=4;spacingRight=4;overflow=hidden;rotatable=0;points=[[0,0.5],[1,0.5]];portConstraint=eastwest;whiteSpace=wrap;html=1;" parent="oEjK3gBVX5ZYHdjVoAei-9" vertex="1">
          <mxGeometry y="34" width="310" height="26" as="geometry" />
        </mxCell>
        <mxCell id="oEjK3gBVX5ZYHdjVoAei-12" value="" style="endArrow=block;dashed=1;endFill=0;endSize=12;html=1;rounded=0;entryX=-0.001;entryY=1.062;entryDx=0;entryDy=0;entryPerimeter=0;" parent="1" source="oEjK3gBVX5ZYHdjVoAei-9" target="oEjK3gBVX5ZYHdjVoAei-4" edge="1">
          <mxGeometry width="160" relative="1" as="geometry">
            <mxPoint x="340" y="180" as="sourcePoint" />
            <mxPoint x="500" y="180" as="targetPoint" />
          </mxGeometry>
        </mxCell>
        <mxCell id="oEjK3gBVX5ZYHdjVoAei-13" value="" style="endArrow=block;dashed=1;endFill=0;endSize=12;html=1;rounded=0;entryX=0.074;entryY=1.031;entryDx=0;entryDy=0;entryPerimeter=0;exitX=0.094;exitY=-0.017;exitDx=0;exitDy=0;exitPerimeter=0;" parent="1" target="oEjK3gBVX5ZYHdjVoAei-4" edge="1" source="oEjK3gBVX5ZYHdjVoAei-5">
          <mxGeometry width="160" relative="1" as="geometry">
            <mxPoint x="460" y="318" as="sourcePoint" />
            <mxPoint x="500" y="300" as="targetPoint" />
          </mxGeometry>
        </mxCell>
        <mxCell id="oEjK3gBVX5ZYHdjVoAei-14" value="map&amp;lt;string,Component&amp;gt; components&lt;div&gt;(this would be stored in the entity)&lt;/div&gt;" style="html=1;whiteSpace=wrap;" parent="1" vertex="1">
          <mxGeometry x="70" y="236" width="250" height="50" as="geometry" />
        </mxCell>
        <mxCell id="oEjK3gBVX5ZYHdjVoAei-19" value="ComponentManager" style="swimlane;fontStyle=1;align=center;verticalAlign=top;childLayout=stackLayout;horizontal=1;startSize=26;horizontalStack=0;resizeParent=1;resizeParentMax=0;resizeLast=0;collapsible=1;marginBottom=0;whiteSpace=wrap;html=1;" parent="1" vertex="1">
          <mxGeometry x="215" y="30" width="555" height="100" as="geometry" />
        </mxCell>
        <mxCell id="oEjK3gBVX5ZYHdjVoAei-20" value="+ field: type" style="text;strokeColor=none;fillColor=none;align=left;verticalAlign=top;spacingLeft=4;spacingRight=4;overflow=hidden;rotatable=0;points=[[0,0.5],[1,0.5]];portConstraint=eastwest;whiteSpace=wrap;html=1;" parent="oEjK3gBVX5ZYHdjVoAei-19" vertex="1">
          <mxGeometry y="26" width="555" height="26" as="geometry" />
        </mxCell>
        <mxCell id="oEjK3gBVX5ZYHdjVoAei-21" value="" style="line;strokeWidth=1;fillColor=none;align=left;verticalAlign=middle;spacingTop=-1;spacingLeft=3;spacingRight=3;rotatable=0;labelPosition=right;points=[];portConstraint=eastwest;strokeColor=inherit;" parent="oEjK3gBVX5ZYHdjVoAei-19" vertex="1">
          <mxGeometry y="52" width="555" height="8" as="geometry" />
        </mxCell>
        <mxCell id="oEjK3gBVX5ZYHdjVoAei-22" value="+ void createAdventureComponents(Adventure&amp;amp;)&amp;nbsp; &amp;nbsp;(check through all locations, checks through inventory, adds revalvent components to entities" style="text;strokeColor=none;fillColor=none;align=left;verticalAlign=top;spacingLeft=4;spacingRight=4;overflow=hidden;rotatable=0;points=[[0,0.5],[1,0.5]];portConstraint=eastwest;whiteSpace=wrap;html=1;" parent="oEjK3gBVX5ZYHdjVoAei-19" vertex="1">
          <mxGeometry y="60" width="555" height="40" as="geometry" />
        </mxCell>
        <mxCell id="oEjK3gBVX5ZYHdjVoAei-23" value="Add array of strings in the json file for the entities" style="text;html=1;align=center;verticalAlign=middle;whiteSpace=wrap;rounded=0;" parent="1" vertex="1">
          <mxGeometry x="30" y="100" width="185" height="30" as="geometry" />
        </mxCell>
        <mxCell id="p8kocE0mk6suAov1xZtQ-1" value="Heal" style="swimlane;fontStyle=1;align=center;verticalAlign=top;childLayout=stackLayout;horizontal=1;startSize=26;horizontalStack=0;resizeParent=1;resizeParentMax=0;resizeLast=0;collapsible=1;marginBottom=0;whiteSpace=wrap;html=1;" vertex="1" parent="1">
          <mxGeometry x="530" y="580" width="310" height="86" as="geometry" />
        </mxCell>
        <mxCell id="oEjK3gBVX5ZYHdjVoAei-2" value="+value:int" style="text;strokeColor=none;fillColor=none;align=left;verticalAlign=top;spacingLeft=4;spacingRight=4;overflow=hidden;rotatable=0;points=[[0,0.5],[1,0.5]];portConstraint=eastwest;whiteSpace=wrap;html=1;" parent="p8kocE0mk6suAov1xZtQ-1" vertex="1">
          <mxGeometry y="26" width="310" height="26" as="geometry" />
        </mxCell>
        <mxCell id="p8kocE0mk6suAov1xZtQ-2" value="" style="line;strokeWidth=1;fillColor=none;align=left;verticalAlign=middle;spacingTop=-1;spacingLeft=3;spacingRight=3;rotatable=0;labelPosition=right;points=[];portConstraint=eastwest;strokeColor=inherit;" vertex="1" parent="p8kocE0mk6suAov1xZtQ-1">
          <mxGeometry y="52" width="310" height="8" as="geometry" />
        </mxCell>
        <mxCell id="p8kocE0mk6suAov1xZtQ-3" value="void execute(Entity&amp;amp;,Message)self,message override" style="text;strokeColor=none;fillColor=none;align=left;verticalAlign=top;spacingLeft=4;spacingRight=4;overflow=hidden;rotatable=0;points=[[0,0.5],[1,0.5]];portConstraint=eastwest;whiteSpace=wrap;html=1;" vertex="1" parent="p8kocE0mk6suAov1xZtQ-1">
          <mxGeometry y="60" width="310" height="26" as="geometry" />
        </mxCell>
        <mxCell id="p8kocE0mk6suAov1xZtQ-4" value="Health" style="swimlane;fontStyle=1;align=center;verticalAlign=top;childLayout=stackLayout;horizontal=1;startSize=26;horizontalStack=0;resizeParent=1;resizeParentMax=0;resizeLast=0;collapsible=1;marginBottom=0;whiteSpace=wrap;html=1;" vertex="1" parent="1">
          <mxGeometry x="100" y="410" width="310" height="60" as="geometry" />
        </mxCell>
        <mxCell id="p8kocE0mk6suAov1xZtQ-5" value="" style="line;strokeWidth=1;fillColor=none;align=left;verticalAlign=middle;spacingTop=-1;spacingLeft=3;spacingRight=3;rotatable=0;labelPosition=right;points=[];portConstraint=eastwest;strokeColor=inherit;" vertex="1" parent="p8kocE0mk6suAov1xZtQ-4">
          <mxGeometry y="26" width="310" height="8" as="geometry" />
        </mxCell>
        <mxCell id="p8kocE0mk6suAov1xZtQ-6" value="void execute(Entity&amp;amp;,Message)self,message override" style="text;strokeColor=none;fillColor=none;align=left;verticalAlign=top;spacingLeft=4;spacingRight=4;overflow=hidden;rotatable=0;points=[[0,0.5],[1,0.5]];portConstraint=eastwest;whiteSpace=wrap;html=1;" vertex="1" parent="p8kocE0mk6suAov1xZtQ-4">
          <mxGeometry y="34" width="310" height="26" as="geometry" />
        </mxCell>
        <mxCell id="p8kocE0mk6suAov1xZtQ-7" value="Attack" style="swimlane;fontStyle=1;align=center;verticalAlign=top;childLayout=stackLayout;horizontal=1;startSize=26;horizontalStack=0;resizeParent=1;resizeParentMax=0;resizeLast=0;collapsible=1;marginBottom=0;whiteSpace=wrap;html=1;" vertex="1" parent="1">
          <mxGeometry x="215" y="580" width="310" height="86" as="geometry" />
        </mxCell>
        <mxCell id="p8kocE0mk6suAov1xZtQ-19" value="+value:int" style="text;strokeColor=none;fillColor=none;align=left;verticalAlign=top;spacingLeft=4;spacingRight=4;overflow=hidden;rotatable=0;points=[[0,0.5],[1,0.5]];portConstraint=eastwest;whiteSpace=wrap;html=1;" vertex="1" parent="p8kocE0mk6suAov1xZtQ-7">
          <mxGeometry y="26" width="310" height="26" as="geometry" />
        </mxCell>
        <mxCell id="p8kocE0mk6suAov1xZtQ-8" value="" style="line;strokeWidth=1;fillColor=none;align=left;verticalAlign=middle;spacingTop=-1;spacingLeft=3;spacingRight=3;rotatable=0;labelPosition=right;points=[];portConstraint=eastwest;strokeColor=inherit;" vertex="1" parent="p8kocE0mk6suAov1xZtQ-7">
          <mxGeometry y="52" width="310" height="8" as="geometry" />
        </mxCell>
        <mxCell id="p8kocE0mk6suAov1xZtQ-9" value="void execute(Entity&amp;amp;,Message)self,message override" style="text;strokeColor=none;fillColor=none;align=left;verticalAlign=top;spacingLeft=4;spacingRight=4;overflow=hidden;rotatable=0;points=[[0,0.5],[1,0.5]];portConstraint=eastwest;whiteSpace=wrap;html=1;" vertex="1" parent="p8kocE0mk6suAov1xZtQ-7">
          <mxGeometry y="60" width="310" height="26" as="geometry" />
        </mxCell>
        <mxCell id="p8kocE0mk6suAov1xZtQ-10" value="" style="endArrow=block;dashed=1;endFill=0;endSize=12;html=1;rounded=0;" edge="1" parent="1">
          <mxGeometry width="160" relative="1" as="geometry">
            <mxPoint x="389" y="410" as="sourcePoint" />
            <mxPoint x="440" y="260" as="targetPoint" />
          </mxGeometry>
        </mxCell>
        <mxCell id="p8kocE0mk6suAov1xZtQ-11" value="" style="endArrow=block;dashed=1;endFill=0;endSize=12;html=1;rounded=0;entryX=0.048;entryY=1;entryDx=0;entryDy=0;entryPerimeter=0;exitX=0.026;exitY=0.083;exitDx=0;exitDy=0;exitPerimeter=0;" edge="1" parent="1" source="p8kocE0mk6suAov1xZtQ-1" target="oEjK3gBVX5ZYHdjVoAei-4">
          <mxGeometry width="160" relative="1" as="geometry">
            <mxPoint x="399" y="420" as="sourcePoint" />
            <mxPoint x="462" y="300" as="targetPoint" />
          </mxGeometry>
        </mxCell>
        <mxCell id="p8kocE0mk6suAov1xZtQ-12" value="" style="endArrow=block;dashed=1;endFill=0;endSize=12;html=1;rounded=0;exitX=0.026;exitY=0.083;exitDx=0;exitDy=0;exitPerimeter=0;" edge="1" parent="1">
          <mxGeometry width="160" relative="1" as="geometry">
            <mxPoint x="508" y="580" as="sourcePoint" />
            <mxPoint x="450" y="260" as="targetPoint" />
          </mxGeometry>
        </mxCell>
        <mxCell id="p8kocE0mk6suAov1xZtQ-13" value="name" style="endArrow=block;endFill=1;html=1;edgeStyle=orthogonalEdgeStyle;align=left;verticalAlign=top;rounded=0;entryX=0.139;entryY=0.885;entryDx=0;entryDy=0;entryPerimeter=0;" edge="1" parent="1" target="oEjK3gBVX5ZYHdjVoAei-8">
          <mxGeometry x="-1" relative="1" as="geometry">
            <mxPoint x="450" y="579" as="sourcePoint" />
            <mxPoint x="610" y="579" as="targetPoint" />
            <Array as="points">
              <mxPoint x="450" y="520" />
              <mxPoint x="530" y="520" />
              <mxPoint x="530" y="384" />
              <mxPoint x="533" y="384" />
            </Array>
          </mxGeometry>
        </mxCell>
        <mxCell id="p8kocE0mk6suAov1xZtQ-14" value="Used by" style="edgeLabel;resizable=0;html=1;align=left;verticalAlign=bottom;" connectable="0" vertex="1" parent="p8kocE0mk6suAov1xZtQ-13">
          <mxGeometry x="-1" relative="1" as="geometry" />
        </mxCell>
        <mxCell id="p8kocE0mk6suAov1xZtQ-15" value="name" style="endArrow=block;endFill=1;html=1;edgeStyle=orthogonalEdgeStyle;align=left;verticalAlign=top;rounded=0;entryX=0.261;entryY=1.038;entryDx=0;entryDy=0;entryPerimeter=0;" edge="1" parent="1" target="oEjK3gBVX5ZYHdjVoAei-8">
          <mxGeometry x="-1" relative="1" as="geometry">
            <mxPoint x="570" y="580" as="sourcePoint" />
            <mxPoint x="653" y="378" as="targetPoint" />
            <Array as="points">
              <mxPoint x="570" y="440" />
            </Array>
          </mxGeometry>
        </mxCell>
        <mxCell id="p8kocE0mk6suAov1xZtQ-16" value="Used by" style="edgeLabel;resizable=0;html=1;align=left;verticalAlign=bottom;" connectable="0" vertex="1" parent="p8kocE0mk6suAov1xZtQ-15">
          <mxGeometry x="-1" relative="1" as="geometry" />
        </mxCell>
        <mxCell id="p8kocE0mk6suAov1xZtQ-18" value="vectore&amp;lt;string&amp;gt; componentList&lt;div&gt;(this would be stored in the entity)&lt;/div&gt;" style="html=1;whiteSpace=wrap;" vertex="1" parent="1">
          <mxGeometry x="70" y="180" width="250" height="50" as="geometry" />
        </mxCell>
      </root>
    </mxGraphModel>
  </diagram>
</mxfile>
